PathFileType  4	(X/Y/Z) C:\Users\antoi\Documents\MyRepositories\mobilecap\ResultsAnalysis
DataRate	CameraRate	NumFrames	NumMarkers	Units	OrigDataRate	OrigDataStartFrame	OrigNumFrames
100.0	100.0	7	51	mm	100.0	140	279
Frame#	Time	r_knee			r_shank_antsup			r_ankle			r_calc			r_5meta			r_toe			L_knee			L_shank_antsup			L_ankle			L_calc			L_5meta			L_toe			r_sh2			r_sh3			r_sh4			L_sh2			L_sh3			r_thigh1			r_thigh2			r_thigh3			r_thigh4			r_thigh5			L_thigh1			L_thigh2			L_thigh3			L_thigh4			r.ASIS			r.PSIS			L.ASIS			L.PSIS			C7			R_Shoulder			L_Shoulder			R_Sternum			L_Sternum			R_humerus			R_elbow_med			R_elbow_lat			R_forearm			R_wrist_radius			R_wrist_ulna			L_humerus			L_elbow_med			L_elbow_lat			L_forearm			L_wrist_radius			L_wrist_ulna			R_HJC			L_HJC			R_HJC_reg			L_HJC_reg			
		X1	Y1	Z1	X2	Y2	Z2	X3	Y3	Z3	X4	Y4	Z4	X5	Y5	Z5	X6	Y6	Z6	X7	Y7	Z7	X8	Y8	Z8	X9	Y9	Z9	X10	Y10	Z10	X11	Y11	Z11	X12	Y12	Z12	X13	Y13	Z13	X14	Y14	Z14	X15	Y15	Z15	X16	Y16	Z16	X17	Y17	Z17	X18	Y18	Z18	X19	Y19	Z19	X20	Y20	Z20	X21	Y21	Z21	X22	Y22	Z22	X23	Y23	Z23	X24	Y24	Z24	X25	Y25	Z25	X26	Y26	Z26	X27	Y27	Z27	X28	Y28	Z28	X29	Y29	Z29	X30	Y30	Z30	X31	Y31	Z31	X32	Y32	Z32	X33	Y33	Z33	X34	Y34	Z34	X35	Y35	Z35	X36	Y36	Z36	X37	Y37	Z37	X38	Y38	Z38	X39	Y39	Z39	X40	Y40	Z40	X41	Y41	Z41	X42	Y42	Z42	X43	Y43	Z43	X44	Y44	Z44	X45	Y45	Z45	X46	Y46	Z46	X47	Y47	Z47	X48	Y48	Z48	X49	Y49	Z49	X50	Y50	Z50	X51	Y51	Z51	

140	1.39000000	-355.88458	656.63115	-393.06104	-321.10341	582.98810	-375.65401	-289.04388	223.22450	-404.55406	-340.93640	197.52761	-471.07292	-171.18762	106.15680	-369.47527	-118.54633	136.46026	-408.85573	-376.35286	671.78077	-754.86883	-327.76408	564.74689	-785.72315	-308.17019	230.56554	-778.44798	-367.88774	203.23795	-719.78153	-137.23870	144.70437	-770.94414	-180.53967	109.04531	-816.19252	-303.07654	471.45150	-366.10196	-396.29028	569.35864	-377.50231	-382.17764	454.45119	-382.12607	-415.77660	556.53143	-771.94013	-391.78234	437.93732	-782.45036	-390.85681	983.88992	-364.23819	-346.36609	882.73200	-368.53422	-388.21294	835.94937	-347.91460	-492.10919	933.16286	-379.42881	-439.17763	829.27376	-369.60984	-403.56677	1002.40446	-752.63700	-355.18105	873.55126	-765.69732	-512.95656	958.11990	-741.14379	-456.87833	831.77803	-759.62205	-393.38112	1159.99326	-428.27515	-582.79153	1213.16089	-489.98420	-411.79783	1169.03226	-685.57078	-591.46408	1215.96950	-595.92451	-541.16653	1725.58065	-550.85391	-502.60184	1719.87073	-413.37477	-493.04106	1705.13650	-687.86661	-393.75836	1639.91891	-514.90164	-400.59457	1632.17302	-574.15505	-497.05553	1654.86134	-167.44794	-489.73183	1524.91566	-108.23286	-482.16292	1615.53197	-81.86399	-372.02594	1641.98028	-187.00130	-303.57188	1641.12064	-283.29856	-283.94459	1647.74309	-241.26761	-597.56135	1607.17688	-884.56379	-678.24517	1498.41223	-902.82346	-647.03986	1560.11704	-948.93361	-496.87698	1493.19849	-996.80832	-406.82971	1456.81425	-995.77820	-423.92242	1444.92444	-1026.67246	-480.55585	1086.37117	-431.43168	-494.38674	1094.26411	-661.24899	-472.48316	1091.97887	-460.30494	-486.37675	1096.47624	-630.03178	
141	1.40000000	-330.31100	636.48112	-390.05499	-298.79937	560.46072	-372.47652	-279.23330	200.76594	-404.22435	-332.14326	179.24366	-471.05128	-167.88814	76.14744	-371.58884	-113.40183	104.24905	-410.41526	-352.21264	649.84732	-757.21457	-307.10217	540.75749	-788.37542	-300.79033	206.46864	-779.21954	-362.59772	183.31899	-721.42884	-134.49523	110.53753	-767.35386	-178.77113	76.73288	-813.31345	-285.17944	448.52158	-363.99937	-374.37935	549.88453	-375.16303	-364.57491	434.54733	-380.83487	-395.43972	536.31401	-774.72024	-376.42884	416.84890	-784.10103	-376.51583	962.63143	-363.01559	-327.03067	864.49392	-365.87382	-367.68521	815.39797	-346.12913	-475.67909	907.87150	-377.20502	-418.00194	805.84652	-367.98548	-388.95030	980.16025	-752.59585	-336.28353	853.01948	-767.22039	-496.69854	932.38969	-740.67434	-436.72555	808.04700	-760.97791	-383.58820	1135.44003	-428.19541	-572.85045	1186.65877	-489.49750	-401.83264	1143.79686	-685.30212	-581.62051	1188.99867	-595.21583	-530.69275	1698.40466	-552.91411	-492.53637	1692.48385	-415.71746	-481.88308	1677.09269	-691.01254	-382.86528	1613.11414	-517.35580	-390.15725	1605.21328	-576.28566	-492.87070	1626.85870	-169.80625	-481.43187	1495.54752	-111.33676	-477.57697	1586.10068	-83.77521	-368.36006	1618.04075	-188.11656	-299.48327	1620.87650	-283.74634	-280.45557	1627.94258	-242.05610	-594.35330	1574.36749	-880.69667	-676.30448	1465.63220	-892.24166	-646.56312	1525.32334	-942.05416	-498.94639	1454.96428	-991.77730	-409.40574	1417.19069	-991.85998	-427.47667	1404.77830	-1022.19752	-469.57754	1060.90129	-430.88424	-483.71603	1068.26661	-660.70011	-461.80410	1066.90852	-459.88506	-475.87323	1070.66701	-629.46746	
142	1.41000000	-303.68100	616.57521	-386.94283	-275.10477	538.84520	-369.47604	-267.80373	178.89154	-402.38721	-323.99166	163.29610	-468.86971	-165.26229	48.79069	-375.12130	-112.91020	76.38543	-416.64741	-326.32181	627.42121	-759.74580	-284.64141	516.54510	-790.91148	-293.32333	182.54875	-779.77926	-357.75169	164.51542	-722.64938	-136.93891	79.75277	-760.85320	-179.46527	47.63291	-809.70702	-264.87459	426.47906	-361.70216	-351.01703	530.80403	-371.49297	-344.93034	414.95274	-377.18063	-373.50829	515.86780	-777.99281	-359.50740	395.53727	-786.08941	-361.68534	939.95491	-361.76348	-307.52097	844.04676	-364.21702	-346.95284	793.79393	-343.54009	-459.02421	881.48047	-373.70812	-397.16422	781.67297	-364.56771	-373.71443	956.86318	-752.84792	-315.67874	832.08147	-768.16824	-479.41263	905.12481	-741.38320	-414.55612	783.14687	-762.79783	-373.75227	1110.49648	-427.89222	-562.99571	1158.64018	-489.46881	-391.93373	1117.76637	-685.26858	-571.86106	1160.55631	-594.61178	-520.10048	1670.09162	-554.92039	-482.24711	1663.88347	-417.59023	-470.05621	1647.60282	-694.37449	-372.50250	1585.33823	-519.00908	-379.81151	1577.11334	-578.03382	-486.91674	1595.57519	-172.07107	-470.63113	1463.08824	-114.77103	-470.99393	1553.33951	-85.99652	-363.33756	1591.14786	-190.25152	-294.56228	1597.88092	-285.63011	-276.34253	1605.93201	-243.77372	-590.27437	1539.39802	-876.54055	-672.83799	1431.02842	-881.37052	-645.11499	1488.49737	-934.69355	-500.22470	1414.09644	-986.11153	-411.16408	1374.50898	-986.94890	-429.86041	1361.80712	-1018.02120	-458.21027	1034.61509	-430.35712	-472.57708	1041.11814	-660.18430	-450.66035	1040.60897	-459.37591	-464.97284	1043.69998	-629.10633	
143	1.42000000	-278.23787	595.56495	-383.90706	-250.11015	517.11943	-367.07368	-262.85131	157.85637	-401.34534	-322.86847	144.64633	-466.75509	-164.26328	33.55671	-377.16347	-117.27846	61.76844	-424.70422	-299.54006	604.48136	-762.40617	-261.35835	491.76619	-792.50469	-291.39512	159.61605	-778.01989	-358.53265	143.74418	-721.64430	-143.92202	61.20602	-753.96431	-181.84225	31.24361	-808.12424	-242.70014	404.38430	-359.35500	-326.34335	511.62756	-366.02978	-323.95720	395.17299	-371.55640	-350.59022	495.75215	-782.12009	-342.75886	374.71306	-788.21642	-346.59472	915.58132	-359.81854	-289.63034	820.20252	-362.94800	-327.43152	770.25440	-340.55271	-442.51742	854.15431	-370.26964	-377.67308	756.35433	-360.89602	-358.52486	932.29694	-753.60597	-294.56056	810.28564	-768.86750	-461.82701	876.02462	-742.96515	-391.48095	756.99638	-764.92134	-363.90746	1084.91383	-427.36392	-553.34689	1129.45233	-490.01381	-381.82483	1090.69563	-685.55340	-562.05861	1130.77932	-594.33146	-509.77070	1641.24976	-556.89119	-471.67259	1634.21552	-418.67821	-457.88741	1616.93987	-697.73893	-362.55112	1556.77568	-520.01606	-369.73469	1548.20661	-579.60864	-478.97090	1561.28906	-173.88944	-457.48943	1427.82422	-118.40393	-462.20565	1517.48068	-88.42006	-356.90173	1561.40581	-192.89291	-288.81351	1572.31334	-288.33945	-271.23733	1581.43383	-246.22543	-585.05872	1502.21870	-872.65458	-667.87454	1395.03136	-870.64342	-642.28801	1450.15848	-927.38737	-500.17140	1370.85326	-980.11289	-411.42317	1329.27276	-982.51396	-431.23486	1316.03644	-1013.28231	-446.75187	1007.52906	-429.90022	-461.01556	1012.78345	-659.76605	-439.44773	1013.28687	-458.78841	-453.66035	1015.44293	-629.03998	
144	1.43000000	-254.09925	573.24724	-382.07254	-225.18778	494.37698	-365.82239	-272.40469	137.57984	-404.47919	-333.36170	117.73882	-467.40894	-165.68387	31.43095	-376.89591	-122.30288	59.47852	-429.69711	-271.70533	582.00432	-765.09122	-239.96755	467.15673	-792.65631	-299.91176	139.88725	-772.28877	-368.23228	118.45470	-717.34985	-150.33417	55.80141	-749.81738	-184.22607	28.37577	-808.79814	-224.48619	381.59811	-358.98096	-301.31632	494.10229	-359.98819	-306.75446	377.77340	-366.26179	-328.48077	478.81616	-786.18038	-330.46241	357.68255	-789.04453	-331.38708	890.56493	-357.24630	-272.38876	795.80280	-361.47208	-308.31694	745.41120	-338.58001	-425.83349	826.54224	-367.88360	-358.41139	730.60774	-358.58566	-344.03115	906.56096	-754.82934	-274.61509	787.35385	-769.75831	-444.67970	845.29944	-744.24343	-369.06866	729.97770	-767.17462	-354.40209	1058.40894	-426.84469	-544.72301	1099.20013	-490.67457	-371.83895	1062.44603	-685.49972	-552.76718	1099.82314	-594.51983	-500.37265	1612.44272	-558.51065	-460.70818	1603.79373	-418.64497	-445.75997	1585.66213	-700.96297	-352.87404	1527.69614	-521.17915	-360.08625	1518.94813	-580.72584	-469.09325	1524.51813	-175.22440	-442.62270	1390.08235	-122.43173	-451.18226	1478.90618	-90.92178	-349.02184	1529.13336	-195.62674	-282.11364	1544.57928	-291.19159	-264.85989	1554.44541	-249.02889	-578.56869	1462.61782	-869.25144	-661.54259	1357.87615	-860.27815	-637.83021	1410.24955	-920.21211	-498.39372	1325.61617	-974.17374	-410.27100	1282.10828	-978.75139	-431.63411	1267.74927	-1007.59655	-435.92893	979.54213	-429.36455	-449.64273	983.28876	-659.29410	-428.92411	985.06029	-458.39849	-442.14254	986.09793	-629.00165	
145	1.44000000	-230.42170	551.66724	-382.47354	-203.78378	471.68331	-367.11275	-289.20755	117.99711	-411.73425	-348.55056	86.56343	-471.49043	-168.13054	33.85920	-376.35138	-124.84540	60.25845	-431.35808	-244.12648	561.68185	-767.30366	-222.20712	444.93347	-791.72419	-312.61643	125.54050	-764.73049	-380.75422	92.96609	-711.14329	-152.83910	55.82788	-748.40943	-185.61606	30.42432	-809.57895	-214.62537	359.37826	-362.42453	-279.06996	479.26778	-356.58046	-296.62117	364.74842	-362.29646	-308.79738	466.27310	-788.31285	-322.83126	345.96450	-787.82294	-316.77091	866.73027	-355.74862	-254.64833	774.11422	-361.11787	-288.88981	721.48190	-338.36154	-409.36309	799.90629	-365.81297	-339.08315	705.99489	-357.01882	-330.86107	881.11837	-755.94723	-256.72379	764.84447	-770.94643	-428.71010	814.91382	-744.31433	-348.33842	703.63879	-768.92390	-345.48898	1031.18138	-426.30038	-537.64754	1068.22358	-491.36691	-362.57371	1033.11144	-684.71816	-544.75453	1068.08269	-595.00482	-492.25761	1584.16875	-559.61607	-449.69254	1573.62167	-417.24504	-434.15088	1554.87593	-704.38844	-343.53325	1498.87815	-523.19472	-350.73574	1490.10417	-581.36747	-457.41714	1485.71643	-176.04567	-426.93700	1350.28708	-128.11090	-438.25233	1438.31874	-93.62771	-339.53920	1494.97522	-198.20293	-274.13958	1515.23368	-293.72997	-257.02574	1525.41119	-251.65009	-570.62608	1420.92024	-866.65239	-653.68136	1319.53298	-850.13760	-631.51505	1368.57078	-912.83579	-495.04128	1278.69739	-968.24301	-408.13821	1233.41681	-974.29424	-430.84682	1217.55915	-1001.17446	-426.32153	950.94063	-428.52805	-439.16148	952.81151	-658.53109	-419.42903	956.20352	-457.91907	-431.13295	955.98004	-628.45390	
146	1.45000000	-211.24956	532.33372	-384.94877	-187.90403	450.42374	-371.31496	-298.68221	102.46236	-420.14688	-357.92137	63.34823	-477.72945	-169.83010	35.24992	-377.48019	-125.60667	59.30072	-432.99910	-220.88399	544.27405	-768.17080	-206.62594	426.72038	-790.56391	-319.30430	116.30462	-758.45631	-388.00171	74.77693	-705.24531	-152.70193	55.51653	-747.62278	-186.17542	31.45592	-809.19617	-207.83404	338.61858	-369.53258	-262.28783	463.34623	-357.57398	-288.82728	351.13266	-361.67828	-291.33610	455.26840	-788.38526	-314.56845	336.26464	-785.64499	-304.15498	844.89294	-356.32674	-238.65418	754.53679	-362.70594	-271.87295	699.85418	-339.28100	-395.14577	775.83010	-363.39406	-322.50359	683.48481	-355.53629	-319.59604	858.17911	-756.22253	-241.15802	744.96947	-771.55513	-414.81504	787.78387	-743.49640	-330.10388	680.15138	-769.34574	-337.86879	1003.59875	-425.66003	-531.68589	1039.40531	-492.57023	-354.18525	1003.02852	-683.77158	-538.14129	1037.97856	-595.53337	-484.58183	1557.53507	-560.35826	-439.40461	1545.15063	-414.49720	-424.06452	1526.06104	-708.59981	-334.47748	1471.43508	-525.64054	-341.41684	1462.93432	-582.07021	-444.15198	1445.20419	-176.30566	-410.70746	1309.72917	-136.35034	-424.06251	1396.80567	-97.05272	-328.36261	1459.90863	-200.57648	-264.53530	1485.36089	-295.72785	-247.40272	1495.11539	-253.61311	-561.09996	1378.45343	-865.07718	-644.10782	1280.35131	-839.86341	-623.16179	1325.81815	-905.52033	-490.27656	1230.66408	-962.03356	-404.70484	1183.92974	-968.57571	-428.55316	1166.37305	-993.86735	-419.27396	923.11652	-427.45795	-430.91110	922.60403	-657.53086	-412.04730	928.51135	-456.66467	-422.72139	926.10640	-627.00828	
